<svg width="87" height="74" viewBox="0 0 87 74" fill="none" xmlns="http://www.w3.org/2000/svg">
<path d="M3.07617 14.9922C3.07617 11.4531 3.12891 8.73438 3.23438 6.83594H3.2168L0.703125 6.4668C0.550781 6.0332 0.433594 5.55273 0.351562 5.02539C0.269531 4.49805 0.228516 3.98828 0.228516 3.49609C0.228516 3.12109 0.257812 2.71094 0.316406 2.26562C1.75781 1.75 3.74414 1.36914 6.27539 1.12305C8.80664 0.876953 11.2441 0.753906 13.5879 0.753906C15.3809 0.753906 16.9219 0.894531 18.2109 1.17578C19.5 1.45703 20.5781 2.0957 21.4453 3.0918C22.3242 4.07617 22.7637 5.55273 22.7637 7.52148C22.7637 8.50586 22.5527 9.6543 22.1309 10.9668C21.7207 12.2676 21.1934 13.5391 20.5488 14.7812C19.916 16.0117 19.2773 17.0078 18.6328 17.7695C17.6836 18.9062 16.6289 19.5742 15.4688 19.7734C13.5469 20.0781 11.5137 20.2305 9.36914 20.2305C9.32227 21.4375 9.30469 22.3047 9.31641 22.832L11.9355 22.6562C12.4746 23.5352 12.7734 24.5781 12.832 25.7852C12.832 25.8438 12.5684 26.0957 12.041 26.541C11.5137 26.9863 10.8164 27.3965 9.94922 27.7715C9.09375 28.1465 8.10938 28.334 6.99609 28.334C5.89453 28.334 5.01562 28.0352 4.35938 27.4375C3.71484 26.8281 3.39258 25.7793 3.39258 24.291C3.19336 21.8535 3.09375 18.7598 3.09375 15.0098L3.07617 14.9922ZM14.2031 15.291C14.5078 14.002 14.7598 12.6367 14.959 11.1953C15.1699 9.74219 15.2871 8.47656 15.3105 7.39844C15.252 7.29297 14.9531 7.19922 14.4141 7.11719C13.875 7.03516 13.1777 6.99414 12.3223 6.99414C11.7246 6.99414 10.9805 7.01758 10.0898 7.06445C9.98438 10.6035 9.84375 13.4453 9.66797 15.5898L14.2031 15.291ZM23.3789 23.6934C23.3789 22.6504 23.5957 21.6367 24.0293 20.6523C24.2285 20.6523 24.5391 20.6934 24.9609 20.7754C25.3945 20.8457 25.8457 20.9395 26.3145 21.0566C26.2441 17.8926 26.209 15.2969 26.209 13.2695C26.209 10.75 26.2559 8.59961 26.3496 6.81836L23.6426 6.44922C23.4902 6.01562 23.373 5.54102 23.291 5.02539C23.209 4.49805 23.168 3.98828 23.168 3.49609C23.168 3.12109 23.1973 2.71094 23.2559 2.26562C24.6504 1.73828 26.4844 1.35742 28.7578 1.12305C31.043 0.876953 33.3457 0.753906 35.666 0.753906C37.8574 0.753906 39.4453 0.853516 40.4297 1.05273C41.0625 1.43945 41.6133 1.83203 42.082 2.23047C42.5625 2.61719 43.0195 3.09766 43.4531 3.67188C43.4531 4.49219 43.3711 5.38281 43.207 6.34375C43.0547 7.29297 42.8379 8.16602 42.5566 8.96289C42.2871 9.75977 41.9941 10.334 41.6777 10.6855C41.4082 10.8145 41.1094 10.9141 40.7812 10.9844C40.4531 11.043 40.0488 11.0723 39.5684 11.0723C39.1465 11.0723 38.7832 11.0371 38.4785 10.9668C38.1855 10.8848 37.9043 10.7676 37.6348 10.6152L37.0371 6.7832C36.2988 6.66602 35.4199 6.60742 34.4004 6.60742C34.1191 6.60742 33.8379 6.625 33.5566 6.66016C33.5098 8.35938 33.2695 10.6738 32.8359 13.6035C35.4375 13.1699 37.6582 12.8535 39.498 12.6543C39.9668 13.3691 40.2012 14.2422 40.2012 15.2734C40.2012 15.9531 40.1074 16.6094 39.9199 17.2422C39.7324 17.875 39.5273 18.3145 39.3047 18.5605C38.8125 18.6426 38.2266 18.6836 37.5469 18.6836C36.668 18.6836 35.7539 18.6074 34.8047 18.4551C33.8672 18.3027 32.9883 18.0801 32.168 17.7871L31.9395 19.2812C31.7988 20.1133 31.6758 20.9336 31.5703 21.7422L42.6973 21.0918C42.873 21.2559 43.0195 21.584 43.1367 22.0762C43.2656 22.5684 43.3301 23.1074 43.3301 23.6934C43.3301 24.6309 43.1426 25.4512 42.7676 26.1543C42.3926 26.8574 41.8945 27.4023 41.2734 27.7891C40.6641 28.1641 40.0078 28.3516 39.3047 28.3516C38.6016 28.3516 37.6406 28.1992 36.4219 27.8945C35.2148 27.5781 34.0371 27.1855 32.8887 26.7168C31.752 26.248 30.9141 25.7969 30.375 25.3633C29.8359 26.3008 29.2441 27.0156 28.5996 27.5078C27.9668 28 27.1465 28.2812 26.1387 28.3516C25.6348 28.2695 25.1719 28.0117 24.75 27.5781C24.3281 27.1445 23.9941 26.5879 23.748 25.9082C23.502 25.2285 23.3789 24.4902 23.3789 23.6934ZM49.2539 22.0234C50.1094 22.3633 50.7832 22.627 51.2754 22.8145C51.7676 23.002 52.2832 23.166 52.8223 23.3066C52.9746 22.9199 53.0508 22.3926 53.0508 21.7246C53.0508 20.8223 52.9863 19.1699 52.8574 16.7676C52.6699 13.5566 52.5762 11.0957 52.5762 9.38477C52.5762 8.20117 52.6113 7.18164 52.6816 6.32617L49.7812 6.15039L49.7285 11.6875C48.8496 11.9805 47.8594 12.127 46.7578 12.127C46.4766 12.127 46.2656 12.1211 46.125 12.1094C45.7383 11.8047 45.334 11.3242 44.9121 10.668C44.502 10.0117 44.1621 9.27344 43.8926 8.45312C43.623 7.63281 43.4883 6.8418 43.4883 6.08008C43.4883 4.76758 43.7051 3.76562 44.1387 3.07422C44.5723 2.38281 45.1816 1.9082 45.9668 1.65039C46.752 1.38086 47.8008 1.20508 49.1133 1.12305C51.1523 1.00586 53.5488 0.917969 56.3027 0.859375C59.0684 0.789062 61.7109 0.753906 64.2305 0.753906C64.5703 1.1875 64.8223 1.67383 64.9863 2.21289C65.1621 2.75195 65.25 3.29102 65.25 3.83008C65.25 4.83789 64.9922 5.68164 64.4766 6.36133C63.9609 7.04102 63.1992 7.38086 62.1914 7.38086C61.5352 7.38086 60.7441 7.26367 59.8184 7.0293C59.6074 12.5371 59.3027 17.623 58.9043 22.2871C58.8223 23.1895 58.6875 23.9863 58.5 24.6777C58.3125 25.3691 58.0254 25.9727 57.6387 26.4883C57.1582 27.1211 56.4961 27.5898 55.6523 27.8945C54.8086 28.1992 53.877 28.3516 52.8574 28.3516C51.8965 28.3516 50.9473 28.1816 50.0098 27.8418C49.084 27.502 48.3867 26.875 47.918 25.9609C47.9297 25.1992 48.0234 24.5254 48.1992 23.9395C48.375 23.3418 48.7266 22.7031 49.2539 22.0234ZM1.58203 66.9707C1.98047 67.1582 2.37891 67.3457 2.77734 67.5332C3.1875 67.709 3.63867 67.8848 4.13086 68.0605C4.21289 67.8379 4.25391 67.4863 4.25391 67.0059C4.25391 66.6777 4.24805 66.4258 4.23633 66.25C4.18945 65.3477 4.0957 63.9766 3.95508 62.1367C3.81445 60.2148 3.70898 58.6504 3.63867 57.4434C3.56836 56.2363 3.5332 55.0938 3.5332 54.0156C3.5332 53.6875 3.54492 53.2305 3.56836 52.6445L3.62109 51.8184L1.00195 51.4492C0.849609 51.0156 0.732422 50.541 0.650391 50.0254C0.568359 49.498 0.527344 48.9883 0.527344 48.4961C0.527344 48.1211 0.556641 47.7109 0.615234 47.2656C2.02148 46.7266 3.79102 46.3398 5.92383 46.1055C8.05664 45.8711 10.2598 45.7539 12.5332 45.7539C14.8301 45.7539 16.4121 45.8535 17.2793 46.0527L17.2969 46.0352C17.9297 46.4102 18.4805 46.8027 18.9492 47.2129C19.4297 47.6113 19.8867 48.0977 20.3203 48.6719C20.3203 49.4805 20.2207 50.4121 20.0215 51.4668C19.834 52.5098 19.5879 53.4707 19.2832 54.3496C18.9902 55.2285 18.6855 55.8496 18.3691 56.2129C18.0879 56.3418 17.7832 56.4414 17.4551 56.5117C17.127 56.5703 16.7285 56.5996 16.2598 56.5996C15.7676 56.5996 15.3926 56.5645 15.1348 56.4941C14.8887 56.4238 14.6191 56.3066 14.3262 56.1426L13.7285 51.7305C13.3418 51.6484 12.873 51.6074 12.3223 51.6074C11.8301 51.6074 11.3086 51.6367 10.7578 51.6953C10.7227 52.2461 10.6816 53.1543 10.6348 54.4199C10.6113 55.3457 10.5762 56.2422 10.5293 57.1094L10.3887 60.168C13.248 59.8164 15.6328 59.4473 17.543 59.0605C18.0117 59.752 18.2461 60.6426 18.2461 61.7324C18.2461 62.4473 18.1523 63.1328 17.9648 63.7891C17.7773 64.4453 17.5723 64.8965 17.3496 65.1426C16.9863 65.2012 16.5059 65.2305 15.9082 65.2305C15.0176 65.2305 14.0625 65.1484 13.043 64.9844C12.0352 64.8086 11.0742 64.5684 10.1602 64.2637C10.0898 65.3066 10.002 66.3145 9.89648 67.2871C9.79102 68.2129 9.64453 69.0215 9.45703 69.7129C9.28125 70.3926 9.00586 70.9844 8.63086 71.4883C8.15039 72.1211 7.53516 72.5898 6.78516 72.8945C6.04688 73.1992 5.25 73.3516 4.39453 73.3516C3.60938 73.3516 2.83594 73.1699 2.07422 72.8066C1.32422 72.4434 0.708984 71.8281 0.228516 70.9609C0.240234 70.1992 0.333984 69.5137 0.509766 68.9043C0.697266 68.2949 1.05469 67.6504 1.58203 66.9707ZM20.4785 59.7109C20.4785 50.4062 24.1348 45.7539 31.4473 45.7539C34.3418 45.7539 36.5977 46.3574 38.2148 47.5645C39.8438 48.7598 40.9629 50.377 41.5723 52.416C42.1934 54.4434 42.5039 56.875 42.5039 59.7109C42.5039 63.8828 41.6484 67.1992 39.9375 69.6602C38.2266 72.1211 35.3965 73.3516 31.4473 73.3516C27.4746 73.3516 24.6504 72.1328 22.9746 69.6953C21.3105 67.2578 20.4785 63.9297 20.4785 59.7109ZM32.3262 67.7441C33.2871 67.7441 33.8379 67.6914 33.9785 67.5859C34.2715 67.0703 34.4941 66.1738 34.6465 64.8965C34.7988 63.6074 34.875 62.166 34.875 60.5723C34.875 58.8965 34.793 57.3438 34.6289 55.9141C34.4766 54.4727 34.2598 53.4648 33.9785 52.8906C33.6855 52.6562 33.252 52.4805 32.6777 52.3633C32.1035 52.2461 31.4707 52.1816 30.7793 52.1699C30.3809 52.1699 30.0176 52.1934 29.6895 52.2402C29.373 52.2754 29.1445 52.334 29.0039 52.416C28.6641 53.002 28.4121 53.8516 28.248 54.9648C28.0957 56.0664 28.0195 57.3262 28.0195 58.7441C28.0195 60.3496 28.1074 61.9492 28.2832 63.543C28.459 65.1367 28.6758 66.3555 28.9336 67.1992C29.0977 67.375 29.5137 67.5098 30.1816 67.6035C30.8496 67.6973 31.5645 67.7441 32.3262 67.7441ZM45.2812 66.9707C45.6797 67.1582 46.0781 67.3457 46.4766 67.5332C46.8867 67.709 47.3379 67.8848 47.8301 68.0605C47.9121 67.8379 47.9531 67.4863 47.9531 67.0059C47.9531 66.6777 47.9473 66.4258 47.9355 66.25C47.8887 65.3477 47.7949 63.9766 47.6543 62.1367C47.5137 60.2148 47.4082 58.6504 47.3379 57.4434C47.2676 56.2363 47.2324 55.0938 47.2324 54.0156C47.2324 53.6875 47.2441 53.2305 47.2676 52.6445L47.3203 51.8184L44.7012 51.4492C44.5488 51.0156 44.4316 50.541 44.3496 50.0254C44.2676 49.498 44.2266 48.9883 44.2266 48.4961C44.2266 48.1211 44.2559 47.7109 44.3145 47.2656C45.7207 46.7266 47.4902 46.3398 49.623 46.1055C51.7559 45.8711 53.959 45.7539 56.2324 45.7539C58.5293 45.7539 60.1113 45.8535 60.9785 46.0527L60.9961 46.0352C61.6289 46.4102 62.1797 46.8027 62.6484 47.2129C63.1289 47.6113 63.5859 48.0977 64.0195 48.6719C64.0195 49.4805 63.9199 50.4121 63.7207 51.4668C63.5332 52.5098 63.2871 53.4707 62.9824 54.3496C62.6895 55.2285 62.3848 55.8496 62.0684 56.2129C61.7871 56.3418 61.4824 56.4414 61.1543 56.5117C60.8262 56.5703 60.4277 56.5996 59.959 56.5996C59.4668 56.5996 59.0918 56.5645 58.834 56.4941C58.5879 56.4238 58.3184 56.3066 58.0254 56.1426L57.4277 51.7305C57.041 51.6484 56.5723 51.6074 56.0215 51.6074C55.5293 51.6074 55.0078 51.6367 54.457 51.6953C54.4219 52.2461 54.3809 53.1543 54.334 54.4199C54.3105 55.3457 54.2754 56.2422 54.2285 57.1094L54.0879 60.168C56.9473 59.8164 59.332 59.4473 61.2422 59.0605C61.7109 59.752 61.9453 60.6426 61.9453 61.7324C61.9453 62.4473 61.8516 63.1328 61.6641 63.7891C61.4766 64.4453 61.2715 64.8965 61.0488 65.1426C60.6855 65.2012 60.2051 65.2305 59.6074 65.2305C58.7168 65.2305 57.7617 65.1484 56.7422 64.9844C55.7344 64.8086 54.7734 64.5684 53.8594 64.2637C53.7891 65.3066 53.7012 66.3145 53.5957 67.2871C53.4902 68.2129 53.3438 69.0215 53.1562 69.7129C52.9805 70.3926 52.7051 70.9844 52.3301 71.4883C51.8496 72.1211 51.2344 72.5898 50.4844 72.8945C49.7461 73.1992 48.9492 73.3516 48.0938 73.3516C47.3086 73.3516 46.5352 73.1699 45.7734 72.8066C45.0234 72.4434 44.4082 71.8281 43.9277 70.9609C43.9395 70.1992 44.0332 69.5137 44.209 68.9043C44.3965 68.2949 44.7539 67.6504 45.2812 66.9707ZM64.1777 59.7109C64.1777 50.4062 67.834 45.7539 75.1465 45.7539C78.041 45.7539 80.2969 46.3574 81.9141 47.5645C83.543 48.7598 84.6621 50.377 85.2715 52.416C85.8926 54.4434 86.2031 56.875 86.2031 59.7109C86.2031 63.8828 85.3477 67.1992 83.6367 69.6602C81.9258 72.1211 79.0957 73.3516 75.1465 73.3516C71.1738 73.3516 68.3496 72.1328 66.6738 69.6953C65.0098 67.2578 64.1777 63.9297 64.1777 59.7109ZM76.0254 67.7441C76.9863 67.7441 77.5371 67.6914 77.6777 67.5859C77.9707 67.0703 78.1934 66.1738 78.3457 64.8965C78.498 63.6074 78.5742 62.166 78.5742 60.5723C78.5742 58.8965 78.4922 57.3438 78.3281 55.9141C78.1758 54.4727 77.959 53.4648 77.6777 52.8906C77.3848 52.6562 76.9512 52.4805 76.377 52.3633C75.8027 52.2461 75.1699 52.1816 74.4785 52.1699C74.0801 52.1699 73.7168 52.1934 73.3887 52.2402C73.0723 52.2754 72.8438 52.334 72.7031 52.416C72.3633 53.002 72.1113 53.8516 71.9473 54.9648C71.7949 56.0664 71.7188 57.3262 71.7188 58.7441C71.7188 60.3496 71.8066 61.9492 71.9824 63.543C72.1582 65.1367 72.375 66.3555 72.6328 67.1992C72.7969 67.375 73.2129 67.5098 73.8809 67.6035C74.5488 67.6973 75.2637 67.7441 76.0254 67.7441Z" fill="#100F0F"/>
</svg>
